# xmcd CD database file
#
# Track frame offsets:
#	150
#	13097
#	32647
#	45580
#
# Disc length: 865 seconds
#
# Revision: 0
# Processed by: cddbd v1.4PL0 Copyright (c) Steve Scherf et al.
# Submitted via: CD2WAV32(EN) R3.19
#
DISCID=27035f04
DTITLE=ITOU Masumi - HiHo
DYEAR=1900
DGENRE=
TTITLE0=HiHo
TTITLE1=Ieji
TTITLE2=HiHo Oke
TTITLE3=Ieji Oke
EXTD=
EXTT0=
EXTT1=
EXTT2=
EXTT3=
PLAYORDER=
